<?xml version="1.0" standalone="no"?>
<!DOCTYPE svg PUBLIC "-//W3C//DTD SVG 20010904//EN"
 "http://www.w3.org/TR/2001/REC-SVG-20010904/DTD/svg10.dtd">
<svg version="1.0" xmlns="http://www.w3.org/2000/svg"
 width="316.000000pt" height="316.000000pt" viewBox="0 0 316.000000 316.000000"
 preserveAspectRatio="xMidYMid meet">
<metadata>
Created by potrace 1.11, written by Peter Selinger 2001-2013
</metadata>
<g transform="translate(0.000000,316.000000) scale(0.100000,-0.100000)"
fill="#000000" stroke="none">
<path d="M984 2993 c1 -35 -2 -63 -7 -63 -4 0 -5 -5 -1 -11 11 -18 12 -109 1
-102 -6 4 -7 1 -3 -6 12 -19 14 -121 3 -114 -6 4 -7 1 -3 -6 11 -17 14 -121 4
-115 -4 3 -4 -5 0 -18 6 -17 7 -411 2 -493 -1 -5 0 -28 2 -50 1 -22 -1 -46 -6
-53 -4 -6 -4 -12 1 -12 4 0 8 -22 8 -49 0 -28 -4 -47 -9 -44 -5 4 -6 1 -2 -6
12 -19 14 -121 3 -114 -6 4 -7 1 -3 -6 10 -15 15 -122 6 -116 -3 2 -4 -10 -2
-27 3 -20 1 -29 -6 -24 -15 9 -79 -55 -97 -97 -16 -40 -13 -150 5 -167 3 -3
20 -25 38 -50 18 -25 35 -44 37 -42 13 6 35 1 30 -7 -3 -6 3 -8 15 -6 11 2 22
-1 25 -6 4 -5 10 -7 14 -5 4 3 26 6 49 7 23 2 42 7 42 12 0 5 5 7 12 5 7 -3
29 12 50 33 20 20 39 35 40 33 2 -2 5 6 5 18 1 12 6 24 10 27 7 6 12 25 14 61
1 19 -8 62 -20 92 -9 24 -81 108 -81 94 0 -4 -6 -1 -13 6 -10 10 -13 61 -12
228 1 118 6 224 10 235 4 13 4 16 -2 7 -7 -9 -10 4 -9 37 0 29 4 47 9 44 6 -4
7 -1 1 8 -13 21 -13 692 1 701 7 5 6 8 -1 8 -12 0 -11 47 1 58 10 10 65 10 65
0 0 -5 6 -6 13 -1 17 11 107 11 107 1 0 -5 6 -6 13 -1 18 11 118 12 110 0 -3
-5 4 -4 15 2 26 14 35 14 27 1 -3 -5 -1 -10 4 -10 6 0 11 4 11 8 0 5 14 8 30
8 17 0 30 -4 30 -8 0 -5 6 -6 13 -1 18 11 118 12 111 1 -4 -6 3 -5 14 1 26 14
35 14 27 1 -3 -5 -1 -10 4 -10 6 0 11 4 11 8 0 5 14 8 30 8 17 0 30 -4 30 -8
0 -5 6 -6 13 -1 17 11 79 12 101 0 12 -6 16 -5 13 1 -5 7 65 9 92 3 2 -1 -2
-8 -9 -16 -7 -8 -9 -15 -4 -15 13 0 13 -293 0 -302 -8 -6 -8 -8 0 -8 7 0 10
-46 9 -142 -2 -177 1 -184 51 -182 22 1 53 2 71 3 l31 1 -2 80 c-1 50 2 80 9
80 6 0 7 3 0 8 -16 11 -14 56 4 70 12 9 13 12 2 10 -12 -2 -15 12 -16 69 0 41
4 69 9 66 5 -4 6 -1 2 5 -12 20 -15 51 -5 57 5 4 7 10 4 15 -9 14 -14 110 -5
105 5 -3 5 9 -1 27 -11 41 -11 41 3 32 7 -4 8 -3 4 4 -12 20 -15 51 -5 57 5 4
7 11 3 16 -3 5 -7 33 -8 62 l-2 52 -595 0 -596 1 1 -63z m132 -1555 c9 -9 16
-32 17 -53 1 -30 -5 -43 -27 -62 -66 -56 -157 21 -115 98 5 11 14 17 20 14 5
-4 9 -3 8 2 -3 18 3 20 41 19 22 -1 47 -9 56 -18z"/>
<path d="M1247 2879 c7 -7 15 -10 18 -7 3 3 -2 9 -12 12 -14 6 -15 5 -6 -5z"/>
<path d="M1290 2274 c-68 -37 -98 -91 -98 -175 0 -46 5 -72 14 -80 8 -6 14
-18 14 -25 0 -8 4 -14 9 -14 5 0 12 -9 16 -20 3 -11 12 -19 18 -17 7 1 11 -5
9 -13 -2 -8 -1 -12 3 -8 4 3 21 1 38 -6 18 -7 49 -12 70 -11 20 0 37 -4 37
-10 0 -7 3 -7 8 1 4 5 23 16 42 24 32 13 63 41 93 84 14 20 83 31 93 15 3 -5
12 -5 22 -1 20 10 92 9 109 -1 6 -4 14 -4 17 1 5 9 47 9 63 -1 7 -4 15 -3 18
3 5 8 12 7 23 -2 9 -7 13 -8 10 -3 -4 7 11 11 43 11 27 0 49 -4 49 -8 0 -5 9
-4 20 2 14 8 20 8 20 0 0 -7 5 -8 13 -3 18 11 67 12 67 1 0 -5 5 -6 12 -2 16
10 118 12 124 2 3 -5 10 -5 17 -1 16 10 58 10 63 1 3 -5 10 -5 17 -1 16 10
127 11 133 1 3 -4 13 -4 22 0 21 10 213 9 229 -1 6 -4 15 -3 18 3 5 8 11 8 20
0 10 -8 15 -8 20 0 5 8 11 7 23 -2 12 -10 14 -10 8 0 -4 6 -2 12 3 12 10 0 15
-14 12 -33 -1 -5 3 -6 8 -2 6 3 8 11 5 18 -3 8 3 13 15 13 18 0 19 -13 19
-443 l0 -442 -326 -1 c-179 0 -328 -3 -331 -6 -3 -3 -6 -39 -6 -80 l-1 -74 81
-1 c387 -2 730 2 737 9 7 7 13 489 7 529 -1 5 -1 13 0 18 5 27 1 498 -4 505
-3 5 -1 11 5 15 6 4 8 10 5 14 -2 5 -5 31 -6 60 l-2 51 -744 0 -743 0 -12 25
c-6 14 -15 25 -20 25 -5 0 -6 5 -3 10 3 6 1 10 -6 10 -7 0 -23 10 -36 22 -36
34 -143 35 -203 2z m142 -116 c45 -41 43 -78 -5 -121 -37 -32 -116 1 -119 51
-2 25 12 75 19 69 3 -3 12 0 20 8 21 22 56 18 85 -7z"/>
<path d="M101 1911 c-1 -146 -2 -270 -2 -276 -1 -85 0 -477 1 -495 1 -14 2
-54 3 -90 l2 -65 112 -1 c119 -1 149 -7 137 -25 -4 -8 -3 -9 4 -5 6 4 9 13 6
20 -4 11 2 13 30 6 21 -5 39 -4 42 2 4 5 11 5 18 -1 7 -6 16 -8 19 -4 8 8 67
10 67 3 0 -3 12 -6 28 -5 17 0 26 -5 24 -13 -1 -8 2 -11 7 -7 6 3 8 12 5 19
-4 11 2 13 30 6 21 -5 39 -4 42 2 4 5 11 5 18 -1 9 -7 16 -7 23 0 8 8 13 8 17
0 5 -8 13 -8 27 -1 10 6 19 7 19 2 0 -4 12 -8 28 -7 17 0 26 -5 24 -13 -1 -8
2 -11 7 -7 6 3 8 12 4 21 -4 12 -1 13 19 5 14 -5 31 -6 38 -1 7 5 23 4 36 0
12 -5 24 -7 27 -4 9 9 47 13 47 4 0 -5 9 -8 20 -7 11 1 20 4 20 7 0 7 107 3
119 -5 6 -3 11 0 11 7 0 8 3 9 8 3 8 -12 22 -13 37 -3 6 4 17 3 25 -2 9 -5 19
-5 26 1 8 7 14 6 19 -1 4 -7 12 -7 26 0 10 6 19 7 19 2 0 -4 12 -8 28 -7 17 0
26 -5 24 -13 -1 -8 2 -11 7 -7 6 3 8 11 5 18 -3 8 9 12 41 11 25 -1 48 -4 52
-7 3 -4 14 -2 24 4 11 5 19 6 19 1 0 -4 10 -8 23 -7 12 0 23 -3 24 -8 2 -4 20
-23 40 -43 40 -38 79 -59 102 -55 7 1 10 -2 6 -8 -4 -8 2 -8 19 -1 17 6 26 6
26 -1 0 -6 6 -6 19 1 11 5 28 10 38 10 11 0 25 6 31 12 7 7 17 13 22 13 10 0
70 74 70 87 0 5 4 7 8 4 4 -2 7 30 6 72 -1 45 -7 78 -13 80 -6 2 -11 9 -11 16
0 17 -50 69 -80 83 -34 15 -64 26 -70 25 -3 0 -27 -3 -53 -5 -27 -3 -59 -13
-72 -21 -37 -24 -75 -66 -75 -81 0 -17 8 -17 -240 -19 -102 -1 -191 2 -197 7
-7 5 -13 6 -13 1 0 -5 -192 -9 -430 -9 -280 0 -430 3 -430 10 0 6 -5 3 -10 -5
-7 -11 -10 -11 -10 -2 0 7 -3 11 -7 9 -5 -3 -9 6 -9 19 -1 13 2 24 7 24 5 0 4
12 -2 27 -7 19 -7 29 0 31 6 2 8 9 4 15 -10 17 -10 147 0 147 4 0 5 6 1 12
-12 19 -11 578 1 578 6 0 4 4 -3 9 -11 6 -10 10 4 15 10 4 21 1 26 -6 5 -9 8
-9 8 -1 0 6 8 10 18 8 9 -2 17 -4 17 -5 0 -1 10 -3 22 -4 12 -1 20 0 18 4 -2
4 24 6 58 4 34 -1 62 -3 62 -4 0 -1 10 -3 22 -4 12 -1 20 0 18 4 -2 4 24 6 58
4 34 -1 62 -3 62 -4 0 -1 10 -3 22 -4 12 -1 20 0 18 4 -6 10 108 6 124 -4 11
-7 12 -6 6 5 -8 12 -6 12 8 0 10 -7 17 -9 17 -3 0 12 18 11 39 -2 10 -7 12 -6
6 4 -6 10 -4 12 8 7 8 -3 17 0 19 6 4 11 3 81 -1 128 -1 15 -38 17 -410 17
l-409 -1 -1 -266z m1735 -798 c38 -51 -7 -136 -68 -126 -39 6 -69 34 -72 68
-3 20 0 25 12 20 13 -5 13 -3 1 11 -11 14 -10 19 10 35 13 10 27 16 32 13 5
-3 9 -1 9 5 0 15 60 -5 76 -26z"/>
<path d="M955 2121 c-3 -5 -2 -12 3 -15 5 -3 9 1 9 9 0 17 -3 19 -12 6z"/>
<path d="M269 1983 c-13 -16 -12 -17 4 -4 9 7 17 15 17 17 0 8 -8 3 -21 -13z"/>
<path d="M2127 1984 c-3 -3 -21 -7 -39 -9 -47 -4 -78 -12 -97 -27 -28 -22 -65
-69 -78 -99 -15 -36 -11 -161 5 -167 7 -2 12 -10 12 -17 0 -13 45 -55 77 -73
14 -8 16 -39 17 -216 1 -129 -3 -208 -9 -210 -5 -3 -4 -5 4 -5 11 -1 11 -4 1
-16 -7 -8 -8 -15 -3 -15 12 0 13 -31 1 -47 -5 -7 -5 -14 2 -18 7 -4 7 -12 0
-25 -7 -13 -7 -21 0 -25 8 -5 8 -11 1 -19 -7 -9 -7 -16 1 -24 9 -9 9 -15 0
-24 -8 -8 -8 -17 0 -32 8 -15 8 -21 -1 -24 -6 -2 -8 -8 -5 -13 9 -16 11 -130
2 -135 -4 -3 -5 -13 0 -22 4 -9 7 -116 7 -237 -1 -201 -2 -220 -18 -219 -9 1
-17 -1 -17 -5 0 -8 -773 -6 -787 2 -6 4 -13 2 -15 -3 -2 -7 -12 -8 -28 -2 -22
8 -25 15 -26 68 0 33 5 62 10 67 8 5 7 10 -2 16 -17 11 -17 21 0 32 7 5 8 9 2
9 -13 0 -13 92 1 103 7 6 7 10 0 13 -11 5 -12 174 -1 192 4 7 4 12 -1 12 -4 0
-8 27 -8 60 0 33 3 60 7 60 5 0 3 8 -3 18 -16 25 -157 27 -158 3 -1 -626 -1
-804 2 -808 10 -10 817 -8 817 2 0 7 3 7 8 0 4 -6 55 -10 117 -10 62 0 113 4
117 10 5 7 8 7 8 0 0 -6 26 -9 65 -7 l65 4 0 46 c1 26 1 358 1 739 0 619 1
694 16 708 8 9 22 14 30 11 8 -3 11 -1 8 4 -8 13 20 41 31 32 5 -4 6 -3 2 2
-4 5 1 25 11 45 24 48 22 145 -5 186 -29 46 -61 73 -104 88 -22 7 -37 16 -33
20 3 4 4 7 1 7 -2 0 -7 -3 -11 -6z m-12 -134 c-3 -5 0 -7 8 -5 19 8 47 -26 51
-62 5 -40 -21 -72 -66 -79 -71 -12 -115 73 -67 127 11 13 18 17 14 9 -3 -9 -1
-8 7 3 13 18 64 25 53 7z"/>
<path d="M215 961 c-3 -5 -2 -12 3 -15 5 -3 9 1 9 9 0 17 -3 19 -12 6z"/>
<path d="M1095 960 c-3 -5 -1 -10 4 -10 6 0 11 5 11 10 0 6 -2 10 -4 10 -3 0
-8 -4 -11 -10z"/>
<path d="M2933 955 c0 -8 4 -12 9 -9 5 3 6 10 3 15 -9 13 -12 11 -12 -6z"/>
<path d="M1173 75 c0 -8 4 -12 9 -9 5 3 6 10 3 15 -9 13 -12 11 -12 -6z"/>
<path d="M1653 75 c0 -8 4 -12 9 -9 5 3 6 10 3 15 -9 13 -12 11 -12 -6z"/>
<path d="M1893 75 c0 -8 4 -12 9 -9 5 3 6 10 3 15 -9 13 -12 11 -12 -6z"/>
<path d="M1950 79 c0 -5 5 -7 10 -4 6 3 10 8 10 11 0 2 -4 4 -10 4 -5 0 -10
-5 -10 -11z"/>
</g>
</svg>
